# xmcd
#
# Track frame offsets: 
#        150
#        66420
#        137852
#        216184
#
# Disc length: 3690 seconds
#
# Revision: 1
# Processed by: cddbd v1.5.2PL0 Copyright (c) Steve Scherf et al.
# Submitted via: ExactAudioCopyFreeDBPlugin 1.0
#
DISCID=3f0e6804
DTITLE=Norman Granz Jam Session - Swing Time 091 - Jam Sessions 01 - 1
DTITLE=952
DYEAR=1952
DGENRE=Swing
TTITLE0=Jam Blues
TTITLE1=What is this thing called love?
TTITLE2=Ballad Medley: All the things you are, Dearly beloved, The nea
TTITLE2=rness of you, I'll get by, Everything happens to me, The man I
TTITLE2=love, What is new?, Someone to watch over me, Isn't it romant
TTITLE2=ic?
TTITLE3=Funky Blues
EXTD=
EXTT0=
EXTT1=
EXTT2=
EXTT3=
PLAYORDER=
